# File created by Blade
# Date/Time:  Wed Jan 21 17:05:57 2015
# Frame Rate: 120.000 fps
#------------------------------------------------------
:FULLY-SPECIFIED
:DEGREES
173
root 20.107488 24.442015 -12.057165 -155.378165 0.913767 -179.859022
Spine 29.664072 4.396885 -4.519073
Head -8.321281 -2.539661 6.823300
LeftShoulder 10.548973 -49.471783 20.275090
LeftArm 48.788644 -3.070998 -15.999583
LeftForeArm -5.406597 -0.000000 -1.369579
LeftHand -5.429440 -0.000000 14.827983
LeftHandThumb1 -26.253704 0.000000 33.147579
RightShoulder 4.437361 12.354501 -22.959206
RightArm 49.716669 47.036367 23.372484
RightForeArm -17.742822 0.000000 6.984388
RightHand -11.420975 -0.000000 -22.885342
RightHandThumb1 -24.326973 -0.000000 -32.862282
LeftUpLeg -91.444950 21.440269 -12.578614
LeftLeg 89.097924 -0.000000 -0.000000
LeftFoot -43.334694 20.384971 -12.121696
LeftToeBase 28.016375 -0.000000 -0.000000
RightUpLeg -91.208169 -16.886279 13.396304
RightLeg 89.747859 -0.000000 -0.000000
RightFoot -45.279457 -23.727865 18.034018
RightToeBase 25.374056 -0.000000 -0.000000
174
root 20.103993 24.138440 -12.021164 -155.402969 1.026855 -179.878524
Spine 30.229995 4.413017 -4.618108
Head -8.625123 -2.412641 6.841575
LeftShoulder 10.741890 -49.681376 20.361594
LeftArm 49.063364 -3.117463 -16.288229
LeftForeArm -5.493545 0.000000 -1.312028
LeftHand -5.399693 0.000000 14.883806
LeftHandThumb1 -26.253704 0.000000 33.147579
RightShoulder 4.538473 12.822137 -23.203908
RightArm 50.062073 46.862686 23.707779
RightForeArm -17.619413 -0.000000 7.091613
RightHand -11.550498 0.000000 -23.056450
RightHandThumb1 -24.326973 -0.000000 -32.862282
LeftUpLeg -92.399985 21.491056 -12.673539
LeftLeg 90.394660 -0.000000 -0.000000
LeftFoot -43.726210 20.432241 -12.137885
LeftToeBase 28.091051 -0.000000 -0.000000
RightUpLeg -92.140625 -16.711919 13.367202
RightLeg 91.010970 -0.000000 -0.000000
RightFoot -45.637128 -23.825436 18.072260
RightToeBase 25.278667 -0.000000 -0.000000
175
root 20.096071 23.834240 -11.985938 -155.392151 1.166078 -179.920010
Spine 30.732967 4.418750 -4.752635
Head -8.915805 -2.266782 6.831217
LeftShoulder 10.948655 -49.887205 20.418313
LeftArm 49.280903 -3.096431 -16.503759
LeftForeArm -5.547297 -0.000000 -1.188082
LeftHand -5.599558 -0.000000 14.959110
LeftHandThumb1 -26.253704 0.000000 33.147579
RightShoulder 4.678409 13.320455 -23.407305
RightArm 50.389935 46.644173 23.946171
RightForeArm -17.460035 0.000000 7.078397
RightHand -11.530413 0.000000 -23.207723
RightHandThumb1 -24.326973 -0.000000 -32.862282
LeftUpLeg -93.393086 21.548059 -12.827381
LeftLeg 91.688915 -0.000000 -0.000000
LeftFoot -44.106076 20.431016 -12.195967
LeftToeBase 28.002351 -0.000000 -0.000000
RightUpLeg -93.127807 -16.530950 13.325506
RightLeg 92.278104 -0.000000 -0.000000
RightFoot -45.976752 -23.908879 18.114637
RightToeBase 25.323939 -0.000000 -0.000000
176
root 20.088583 23.532585 -11.953982 -155.415375 1.290165 -179.974381
Spine 31.289858 4.447900 -4.885437
Head -9.276171 -2.222973 6.868281
LeftShoulder 11.142537 -50.149360 20.504658
LeftArm 49.505946 -3.002447 -16.708297
LeftForeArm -5.695060 0.000000 -1.095732
LeftHand -5.653285 -0.000000 14.972840
LeftHandThumb1 -26.253704 0.000000 33.147579
RightShoulder 4.759989 13.818586 -23.672229
RightArm 50.838366 46.549705 24.502069
RightForeArm -17.507780 0.000000 7.155124
RightHand -11.570410 -0.000000 -23.119583
RightHandThumb1 -24.326973 -0.000000 -32.862282
LeftUpLeg -94.344319 21.609535 -12.986307
LeftLeg 92.966573 -0.000000 -0.000000
LeftFoot -44.463840 20.383035 -12.266128
LeftToeBase 28.043377 -0.000000 -0.000000
RightUpLeg -94.059487 -16.350382 13.239373
RightLeg 93.521685 -0.000000 -0.000000
RightFoot -46.314323 -24.017782 18.191598
RightToeBase 25.272296 -0.000000 -0.000000
177
root 20.086536 23.230079 -11.924894 -155.455789 1.385516 -179.922325
Spine 31.866740 4.432809 -4.886241
Head -9.601877 -2.051736 6.799889
LeftShoulder 11.265698 -50.322345 20.586207
LeftArm 49.782438 -3.045049 -16.950106
LeftForeArm -5.613200 -0.000000 -1.109911
LeftHand -5.580502 -0.000000 14.864041
LeftHandThumb1 -26.253704 0.000000 33.147579
RightShoulder 4.831455 14.507756 -23.980466
RightArm 51.253534 46.237002 25.012606
RightForeArm -17.632138 -0.000000 7.130129
RightHand -11.494300 0.000000 -23.227357
RightHandThumb1 -24.326973 -0.000000 -32.862282
LeftUpLeg -95.302493 21.712036 -13.038106
LeftLeg 94.253615 -0.000000 -0.000000
LeftFoot -44.807960 20.353548 -12.286545
LeftToeBase 28.017161 -0.000000 -0.000000
RightUpLeg -94.947316 -16.175809 13.282625
RightLeg 94.741284 -0.000000 -0.000000
RightFoot -46.632929 -24.056373 18.256540
RightToeBase 25.193817 -0.000000 -0.000000
178
root 20.083398 22.936632 -11.893952 -155.531880 1.462848 -179.963529
Spine 32.529087 4.433195 -4.983268
Head -10.028057 -1.907031 6.803332
LeftShoulder 11.502161 -50.666609 20.681491
LeftArm 49.921169 -3.062798 -17.274151
LeftForeArm -5.446521 -0.000000 -1.046337
LeftHand -5.730386 -0.000000 14.801071
LeftHandThumb1 -26.253704 0.000000 33.147579
RightShoulder 4.922983 15.099588 -24.215793
RightArm 51.475006 46.000245 25.266287
RightForeArm -17.767533 -0.000000 7.175855
RightHand -11.609236 0.000000 -23.254889
RightHandThumb1 -24.326973 -0.000000 -32.862282
LeftUpLeg -96.164319 21.766781 -13.152033
LeftLeg 95.442744 -0.000000 -0.000000
LeftFoot -45.138396 20.381346 -12.248572
LeftToeBase 28.104463 -0.000000 -0.000000
RightUpLeg -95.799061 -16.051108 13.226301
RightLeg 95.932628 -0.000000 -0.000000
RightFoot -46.941039 -24.147568 18.278954
RightToeBase 25.258829 -0.000000 -0.000000
179
root 20.079354 22.634775 -11.868771 -155.688724 1.462660 -179.908962
Spine 33.259039 4.322826 -4.915690
Head -10.401267 -1.793109 6.718745
LeftShoulder 11.683679 -51.030866 20.779201
LeftArm 49.966143 -2.875186 -17.421577
LeftForeArm -5.389392 -0.000000 -0.947796
LeftHand -5.874957 0.000000 14.782158
LeftHandThumb1 -26.253704 0.000000 33.147579
RightShoulder 5.012786 15.742393 -24.613942
RightArm 51.719834 45.731275 25.691111
RightForeArm -17.879893 -0.000000 7.230398
RightHand -11.641559 -0.000000 -23.175955
RightHandThumb1 -24.326973 -0.000000 -32.862282
LeftUpLeg -97.007024 21.821546 -13.145807
LeftLeg 96.705933 -0.000000 -0.000000
LeftFoot -45.411402 20.317310 -12.312072
LeftToeBase 27.963551 -0.000000 -0.000000
RightUpLeg -96.576595 -16.008318 13.292816
RightLeg 97.143423 -0.000000 -0.000000
RightFoot -47.243972 -24.145685 18.308106
RightToeBase 25.117306 -0.000000 -0.000000
